<svg width="165" height="48" viewBox="0 0 165 48" fill="none" xmlns="http://www.w3.org/2000/svg">
<path d="M67.8438 12.952C68.0775 13.1845 68.3503 13.3699 68.662 13.5076C68.9737 13.6457 69.3113 13.7144 69.6749 13.7144C70.0386 13.7144 70.3762 13.6457 70.6879 13.5076C70.9996 13.3699 71.2724 13.1845 71.5061 12.952C71.7399 12.7194 71.9217 12.448 72.0516 12.1379C72.1814 11.8278 72.2464 11.5007 72.2464 11.1558C72.2464 10.3979 71.9996 9.77767 71.5061 9.29515C71.0126 8.813 70.4022 8.57153 69.6749 8.57153C68.9477 8.57153 68.3373 8.813 67.8438 9.29515C67.3503 9.77767 67.1035 10.3979 67.1035 11.1558C67.1035 11.5007 67.1684 11.8278 67.2983 12.1379C67.4282 12.448 67.61 12.7194 67.8438 12.952H67.8438Z" fill="white"/>
<path d="M77.9348 9.29515C77.4413 8.813 76.8309 8.57153 76.1037 8.57153C75.3764 8.57153 74.766 8.813 74.2725 9.29515C73.779 9.77767 73.5322 10.3979 73.5322 11.1558C73.5322 11.5007 73.5972 11.8278 73.727 12.1379C73.8569 12.448 74.0387 12.7194 74.2725 12.952C74.5062 13.1845 74.779 13.3699 75.0907 13.5076C75.4024 13.6457 75.74 13.7144 76.1037 13.7144C76.4673 13.7144 76.8049 13.6457 77.1166 13.5076C77.4283 13.3699 77.7011 13.1845 77.9348 12.952C78.1686 12.7194 78.3504 12.448 78.4803 12.1379C78.6101 11.8278 78.6751 11.5007 78.6751 11.1558C78.6751 10.3979 78.4283 9.77767 77.9348 9.29515H77.9348Z" fill="white"/>
<path d="M25.9611 34.2859C25.2338 34.2859 24.6234 34.5273 24.1299 35.0095C23.6364 35.492 23.3896 36.1124 23.3896 36.8703C23.3896 37.2151 23.4546 37.5422 23.5845 37.8523C23.7143 38.1624 23.8961 38.4338 24.1299 38.6664C24.3637 38.899 24.6364 39.0843 24.9481 39.222C25.2598 39.3601 25.5974 39.4287 25.9611 39.4287C26.3247 39.4287 26.6624 39.3601 26.9741 39.222C27.2858 39.0843 27.5585 38.899 27.7922 38.6664C28.026 38.4338 28.2078 38.1624 28.3377 37.8523C28.4676 37.5422 28.5325 37.2151 28.5325 36.8703C28.5325 36.1124 28.2858 35.492 27.7922 35.0095C27.2987 34.5273 26.6883 34.2859 25.9611 34.2859Z" fill="white"/>
<path d="M32.3893 34.2859C31.662 34.2859 31.0516 34.5273 30.5581 35.0095C30.0646 35.492 29.8179 36.1124 29.8179 36.8703C29.8179 37.2151 29.8828 37.5422 30.0127 37.8523C30.1425 38.1624 30.3244 38.4338 30.5581 38.6664C30.7919 38.899 31.0646 39.0843 31.3763 39.222C31.688 39.3601 32.0257 39.4287 32.3893 39.4287C32.7529 39.4287 33.0906 39.3601 33.4023 39.222C33.714 39.0843 33.9867 38.899 34.2205 38.6664C34.4542 38.4338 34.6361 38.1624 34.7659 37.8523C34.8958 37.5422 34.9607 37.2151 34.9607 36.8703C34.9607 36.1124 34.714 35.492 34.2205 35.0095C33.727 34.5273 33.1166 34.2859 32.3893 34.2859Z" fill="white"/>
<path d="M60.6749 34.2859C59.9477 34.2859 59.3373 34.5273 58.8438 35.0095C58.3503 35.492 58.1035 36.1124 58.1035 36.8703C58.1035 37.2151 58.1685 37.5422 58.2983 37.8523C58.4282 38.1624 58.61 38.4338 58.8438 38.6664C59.0775 38.899 59.3503 39.0843 59.662 39.222C59.9736 39.3601 60.3113 39.4287 60.6749 39.4287C61.0386 39.4287 61.3762 39.3601 61.6879 39.222C61.9996 39.0843 62.2724 38.899 62.5061 38.6664C62.7399 38.4338 62.9217 38.1624 63.0516 37.8523C63.1814 37.5422 63.2464 37.2151 63.2464 36.8703C63.2464 36.1124 62.9996 35.492 62.5061 35.0095C62.0126 34.5273 61.4022 34.2859 60.6749 34.2859Z" fill="white"/>
<path d="M73.7307 26.4642C73.7307 27.1643 73.2073 27.7337 72.5639 27.7337H63.4984V16.2859H59.8399V27.7337L53.686 27.7338C52.7406 20.1765 47.9787 18.0012 43.3955 16.3361L42.3386 20.147C47.0219 21.9125 49.1294 23.6309 50.0126 27.7338L40.1035 27.7337V31.7145H72.5639C75.2246 31.7145 77.3892 29.3592 77.3892 26.4642V16.2859H73.7307V26.4642Z" fill="white"/>
<path d="M31.2838 16.4705V26.414C31.2838 27.0979 30.7577 27.6542 30.1111 27.6542H22.255V8.57153H18.5358V27.8294C18.5358 32.0846 15.2742 35.5341 11.2508 35.5341H11.2508C7.22735 35.5341 3.96572 32.0846 3.96572 27.8294V27.6716H0.246582V27.7905C0.246582 34.218 5.17333 39.4287 11.2508 39.4287H11.2508C16.0851 39.4287 20.1817 36.1269 21.6593 31.543H30.1111C32.7853 31.543 34.9609 29.2421 34.9609 26.414V16.4705H31.2838H31.2838Z" fill="white"/>
<path d="M158.324 0H97.7793C94.0923 0 91.1035 3.02953 91.1035 6.76669V41.2333C91.1035 44.9705 94.0923 48 97.7793 48H158.324C162.011 48 165 44.9705 165 41.2333V38.4464H157.074C156.721 40.9817 154.419 42.7622 151.908 42.4294C149.381 42.0944 147.6 39.7462 147.931 37.1849C148.261 34.6232 150.578 32.8184 153.105 33.1531C155.208 33.432 156.793 35.1059 157.075 37.1361H165V6.76669C165 3.02953 162.011 0 158.324 0ZM116.485 0.00032161H117.778V4.9602L120.336 7.55327C121.267 6.84339 122.461 6.48748 123.707 6.65275C126.235 6.9878 128.015 9.33568 127.685 11.8973C127.354 14.4586 125.038 16.2635 122.511 15.9287C119.984 15.5937 118.203 13.2458 118.533 10.6842C118.64 9.85365 118.957 9.10365 119.421 8.47945L116.485 5.50319V0.00032161ZM104.043 10.6842C104.318 8.55231 105.969 6.94544 107.972 6.6595V0.00032161H109.265V6.66046C111.767 7.01861 113.523 9.35205 113.195 11.8973C112.864 14.4586 110.547 16.2635 108.021 15.9288C105.493 15.5937 103.713 13.2458 104.043 10.6842ZM156.571 12.8659C144.487 26.3225 129.798 36.2696 118.819 41.9089C117.077 42.8042 115.425 42.5177 113.801 41.4711C108.343 37.9531 101.84 32.182 97.3177 24.4711C96.9175 23.7885 96.6177 22.622 97.7454 21.8723C98.6342 21.2805 99.6917 21.6871 100.201 22.404C102.998 26.3469 107.872 29.3562 113.246 30.0696C116.581 30.5106 120.515 29.7718 122.766 28.9387C133.879 24.8277 144.387 17.9904 154.565 9.90565C154.874 9.66047 156 9.41175 156.787 10.3161C157.715 11.3835 156.839 12.5693 156.571 12.8659Z" fill="#F0BA0B"/>
<path d="M108.021 15.9284C110.548 16.2632 112.864 14.4583 113.195 11.897C113.523 9.35174 111.767 7.01829 109.265 6.66014V0H107.973V6.65918C105.97 6.94512 104.318 8.55198 104.043 10.6839C103.713 13.2455 105.493 15.5934 108.021 15.9284Z" fill="#0B0D10"/>
<path d="M118.533 10.6839C118.202 13.2455 119.983 15.5934 122.51 15.9284C125.037 16.2632 127.353 14.4583 127.684 11.897C128.015 9.33537 126.234 6.98748 123.707 6.65244C122.46 6.48716 121.266 6.84307 120.335 7.55296L117.777 4.95989V0H116.484V5.50289L119.421 8.47914C118.956 9.10334 118.64 9.85334 118.533 10.6839V10.6839Z" fill="#0B0D10"/>
<path d="M153.104 33.1532C150.577 32.8185 148.26 34.6234 147.93 37.185C147.6 39.7463 149.38 42.0945 151.907 42.4296C154.418 42.7624 156.72 40.9819 157.074 38.4466H164.999V37.1362H157.075C156.792 35.1061 155.207 33.4321 153.104 33.1532H153.104Z" fill="#0B0D10"/>
<path d="M154.564 9.90577C144.387 17.9905 133.878 24.8278 122.765 28.9388C120.514 29.7719 116.58 30.5107 113.245 30.0698C107.872 29.3564 102.998 26.347 100.2 22.4042C99.6911 21.6872 98.6336 21.2806 97.7449 21.8724C96.6171 22.6221 96.917 23.7886 97.3172 24.4712C101.839 32.1821 108.342 37.9533 113.8 41.4712C115.425 42.5178 117.076 42.8044 118.818 41.909C129.797 36.2697 144.486 26.3227 156.571 12.866C156.838 12.5694 157.714 11.3836 156.786 10.3162C155.999 9.41187 154.874 9.66059 154.564 9.90577H154.564Z" fill="#0B0D10"/>
</svg>
